<svg width="12" height="17" viewBox="0 0 12 17" fill="none" xmlns="http://www.w3.org/2000/svg">
<path d="M8.02858 2.61153V0.666626H1.56208C0.791226 0.666626 0.166626 1.29168 0.166626 2.06208V15.2304C0.166626 16.0013 0.791226 16.6259 1.56208 16.6259H9.88753C10.6584 16.6259 11.283 16.0008 11.283 15.2304V3.92103H9.33808C8.61583 3.92103 8.02858 3.33333 8.02858 2.61153ZM8.91193 12.512H2.53768C2.47063 12.512 2.41663 12.458 2.41663 12.3909V11.9301C2.41663 11.8631 2.47108 11.8091 2.53768 11.8091H8.91193C8.97898 11.8091 9.03298 11.8635 9.03298 11.9301V12.3909C9.03298 12.458 8.97853 12.512 8.91193 12.512ZM8.91193 9.87408H2.53768C2.47063 9.87408 2.41663 9.81963 2.41663 9.75258V9.29223C2.41663 9.22518 2.47108 9.17118 2.53768 9.17118H8.91193C8.97898 9.17118 9.03298 9.22563 9.03298 9.29223V9.75258C9.03298 9.81963 8.97853 9.87408 8.91193 9.87408ZM8.91193 7.23663H2.53768C2.47063 7.23663 2.41663 7.18218 2.41663 7.11558V6.65478C2.41663 6.58773 2.47108 6.53373 2.53768 6.53373H8.91193C8.97898 6.53373 9.03298 6.58818 9.03298 6.65478V7.11558C9.03298 7.18263 8.97853 7.23663 8.91193 7.23663Z" fill="#A3A9B6"/>
</svg> 