<svg width="45" height="43" viewBox="0 0 45 43" fill="none" xmlns="http://www.w3.org/2000/svg">
<circle cx="19.8448" cy="22.8448" r="19.845" fill="#D7EAFF"/>
<g clip-path="url(#clip0_1_975)">
<path d="M15.2036 18.1255H15.2118M15.2036 27.9693H15.2118M13.563 14.8443H26.688C27.5941 14.8443 28.3286 15.5788 28.3286 16.4849V19.7661C28.3286 20.6722 27.5941 21.4068 26.688 21.4068H13.563C12.6569 21.4068 11.9224 20.6722 11.9224 19.7661V16.4849C11.9224 15.5788 12.6569 14.8443 13.563 14.8443ZM13.563 24.688H26.688C27.5941 24.688 28.3286 25.4225 28.3286 26.3286V29.6099C28.3286 30.516 27.5941 31.2505 26.688 31.2505H13.563C12.6569 31.2505 11.9224 30.516 11.9224 29.6099V26.3286C11.9224 25.4225 12.6569 24.688 13.563 24.688Z" stroke="#1873DE" stroke-width="1.64062" stroke-linecap="round" stroke-linejoin="round"/>
</g>
<rect x="24.6899" width="19.4795" height="19.4795" rx="9.73975" fill="#E6372B"/>
<g clip-path="url(#clip1_1_975)">
<path d="M36.0387 8.23881L33.0354 11.2421M33.0354 8.23881L36.0387 11.2421M39.3424 10.3411C39.3424 13.3445 37.24 14.8462 34.7413 15.7171C34.6104 15.7615 34.4683 15.7593 34.3388 15.7111C31.834 14.8462 29.7317 13.3445 29.7317 10.3411V6.13647C29.7317 5.97717 29.795 5.82439 29.9076 5.71174C30.0203 5.59909 30.173 5.53581 30.3324 5.53581C31.5337 5.53581 33.0354 4.81501 34.0805 3.90199C34.2078 3.79327 34.3697 3.73353 34.537 3.73353C34.7044 3.73353 34.8663 3.79327 34.9935 3.90199C36.0447 4.82101 37.5404 5.53581 38.7417 5.53581C38.901 5.53581 39.0538 5.59909 39.1664 5.71174C39.2791 5.82439 39.3424 5.97717 39.3424 6.13647V10.3411Z" stroke="#FFF8F7" stroke-width="1.09566" stroke-linecap="round" stroke-linejoin="round"/>
</g>
<defs>
<clipPath id="clip0_1_975">
<rect width="19.6875" height="19.6875" fill="white" transform="translate(10.282 13.2039)"/>
</clipPath>
<clipPath id="clip1_1_975">
<rect width="14.416" height="14.416" fill="white" transform="translate(27.3291 2.53149)"/>
</clipPath>
</defs>
</svg>
