<svg width="18" height="18" viewBox="0 0 18 18" fill="none" xmlns="http://www.w3.org/2000/svg">
<path d="M9.12126 2.25H12.6291C13.0244 2.24999 13.3654 2.24998 13.6462 2.27293C13.9426 2.29717 14.2373 2.35068 14.521 2.49524C14.9436 2.71054 15.2888 3.05418 15.5049 3.47836C15.6494 3.762 15.7029 4.05679 15.7271 4.35297C15.75 4.63361 15.75 4.97423 15.75 5.36879V12.6316C15.75 13.0261 15.75 13.3666 15.7271 13.6471C15.7029 13.9433 15.6494 14.2378 15.5049 14.5214C15.289 14.9452 14.944 15.2894 14.521 15.5049C14.2375 15.6494 13.9429 15.7029 13.6468 15.7271C13.3662 15.75 13.0258 15.75 12.6312 15.75H9.11879C8.72423 15.75 8.38361 15.75 8.10297 15.7271C7.80679 15.7029 7.512 15.6494 7.22835 15.5049C6.80433 15.2889 6.46062 14.9439 6.24524 14.5212C6.10066 14.2374 6.04716 13.9426 6.02293 13.6461C5.99997 13.3653 5.99999 13.0243 6 12.6289L6 12.5625C6 12.1483 6.33579 11.8125 6.75 11.8125C7.16421 11.8125 7.5 12.1483 7.5 12.5625V12.6C7.5 13.0324 7.50058 13.3115 7.51794 13.524C7.53458 13.7276 7.56283 13.8031 7.58175 13.8402C7.65399 13.982 7.76887 14.0968 7.90934 14.1684C7.94625 14.1872 8.02166 14.2154 8.22514 14.2321C8.43735 14.2494 8.7161 14.25 9.14768 14.25H12.6023C13.0339 14.25 13.3125 14.2494 13.5245 14.2321C13.7277 14.2155 13.8031 14.1873 13.8401 14.1684C13.9816 14.0963 14.0967 13.9812 14.1684 13.8404C14.1873 13.8034 14.2155 13.7281 14.2321 13.5249C14.2494 13.3129 14.25 13.0343 14.25 12.6027V5.39768C14.25 4.9661 14.2494 4.68735 14.2321 4.47515C14.2154 4.27166 14.1872 4.19625 14.1684 4.15934C14.0969 4.01903 13.982 3.90407 13.8401 3.83175C13.8029 3.81281 13.7274 3.78458 13.5239 3.76794C13.3116 3.75059 13.0326 3.75 12.6001 3.75H9.15015C8.71774 3.75 8.43844 3.75058 8.22585 3.76795C8.02196 3.7846 7.94638 3.81287 7.90934 3.83175C7.76822 3.90365 7.65365 4.01822 7.58175 4.15934C7.56287 4.19638 7.5346 4.27196 7.51795 4.47585C7.50058 4.68844 7.5 4.96774 7.5 5.40015V5.43644C7.5 5.85066 7.16421 6.18644 6.75 6.18644C6.33579 6.18644 6 5.85066 6 5.43644L6 5.37125C5.99999 4.97588 5.99997 4.63474 6.02293 4.35374C6.04714 4.05721 6.10062 3.76218 6.24524 3.47836C6.46095 3.05499 6.80499 2.71095 7.22835 2.49524C7.51218 2.35062 7.80721 2.29715 8.10374 2.27293C8.38474 2.24998 8.72588 2.24999 9.12126 2.25Z" fill="#333333"/>
<path d="M8.46967 6.21967C8.76256 5.92678 9.23744 5.92678 9.53033 6.21967L11.7803 8.46967C12.0732 8.76256 12.0732 9.23744 11.7803 9.53033L9.53033 11.7803C9.23744 12.0732 8.76256 12.0732 8.46967 11.7803C8.17678 11.4874 8.17678 11.0126 8.46967 10.7197L9.43934 9.75H3C2.58579 9.75 2.25 9.41422 2.25 9C2.25 8.58579 2.58579 8.25 3 8.25H9.43934L8.46967 7.28033C8.17678 6.98744 8.17678 6.51256 8.46967 6.21967Z" fill="#333333"/>
</svg>
