<svg width="18" height="18" viewBox="0 0 18 18" fill="none" xmlns="http://www.w3.org/2000/svg">
<path d="M16.8333 5.25004C17.5 5.91671 17.5 7.00004 16.8333 7.58337L14.5 9.91671L7.99996 3.41671L10.3333 1.08337C11 0.416707 12.0833 0.416707 12.6666 1.08337L14.1666 2.58337L16.6666 0.083374L17.8333 1.25004L15.3333 3.75004L16.8333 5.25004ZM12 10.0834L10.8333 8.91671L8.49996 11.25L6.74996 9.50004L9.08329 7.16671L7.91663 6.00004L5.58329 8.33337L4.33329 7.16671L1.99996 9.50004C1.33329 10.1667 1.33329 11.25 1.99996 11.8334L3.49996 13.3334L0.166626 16.6667L1.33329 17.8334L4.66663 14.5L6.16663 16C6.83329 16.6667 7.91663 16.6667 8.49996 16L10.8333 13.6667L9.66663 12.5L12 10.0834Z" fill="#A3A9B6"/>
</svg> 