<svg width="18" height="18" viewBox="0 0 18 18" fill="none" xmlns="http://www.w3.org/2000/svg">
<path d="M14.4166 6.66671C16.025 6.66671 17.3333 5.35837 17.3333 3.75004C17.3333 2.14171 16.025 0.833374 14.4166 0.833374C12.8083 0.833374 11.5 2.14171 11.5 3.75004C11.5 5.35837 12.8083 6.66671 14.4166 6.66671ZM14.4166 8.33337C14.8333 8.33337 15.25 8.27504 15.6666 8.15837V13.3334C15.6666 15.6334 13.8 17.5 11.5 17.5H4.83329C2.53329 17.5 0.666626 15.6334 0.666626 13.3334V6.66671C0.666626 4.36671 2.53329 2.50004 4.83329 2.50004H10.0083C9.89163 2.91671 9.83329 3.33337 9.83329 3.75004C9.83329 6.28337 11.8833 8.33337 14.4166 8.33337Z" fill="#A3A9B6"/>
</svg>
