<svg width="17" height="18" viewBox="0 0 17 18" fill="none" xmlns="http://www.w3.org/2000/svg">
<path d="M8.37523 12.0795C7.60168 12.0795 6.85982 11.7722 6.31284 11.2252C5.76586 10.6782 5.45857 9.93635 5.45857 9.1628C5.45857 8.38925 5.76586 7.64739 6.31284 7.10041C6.85982 6.55343 7.60168 6.24613 8.37523 6.24613C9.14878 6.24613 9.89065 6.55343 10.4376 7.10041C10.9846 7.64739 11.2919 8.38925 11.2919 9.1628C11.2919 9.93635 10.9846 10.6782 10.4376 11.2252C9.89065 11.7722 9.14878 12.0795 8.37523 12.0795ZM14.5669 9.97113C14.6002 9.70447 14.6252 9.4378 14.6252 9.1628C14.6252 8.8878 14.6002 8.6128 14.5669 8.32947L16.3252 6.97113C16.4836 6.84613 16.5252 6.62113 16.4252 6.4378L14.7586 3.55447C14.6586 3.37113 14.4336 3.29613 14.2502 3.37113L12.1752 4.20447C11.7419 3.87947 11.2919 3.59613 10.7669 3.3878L10.4586 1.17947C10.4252 0.979468 10.2502 0.829468 10.0419 0.829468H6.70857C6.50023 0.829468 6.32523 0.979468 6.2919 1.17947L5.98357 3.3878C5.45857 3.59613 5.00857 3.87947 4.57523 4.20447L2.50023 3.37113C2.3169 3.29613 2.0919 3.37113 1.9919 3.55447L0.325232 6.4378C0.216899 6.62113 0.266899 6.84613 0.425232 6.97113L2.18357 8.32947C2.15023 8.6128 2.12523 8.8878 2.12523 9.1628C2.12523 9.4378 2.15023 9.70447 2.18357 9.97113L0.425232 11.3545C0.266899 11.4795 0.216899 11.7045 0.325232 11.8878L1.9919 14.7711C2.0919 14.9545 2.3169 15.0211 2.50023 14.9545L4.57523 14.1128C5.00857 14.4461 5.45857 14.7295 5.98357 14.9378L6.2919 17.1461C6.32523 17.3461 6.50023 17.4961 6.70857 17.4961H10.0419C10.2502 17.4961 10.4252 17.3461 10.4586 17.1461L10.7669 14.9378C11.2919 14.7211 11.7419 14.4461 12.1752 14.1128L14.2502 14.9545C14.4336 15.0211 14.6586 14.9545 14.7586 14.7711L16.4252 11.8878C16.5252 11.7045 16.4836 11.4795 16.3252 11.3545L14.5669 9.97113Z" fill="#A3A9B6"/>
</svg>
