<svg width="25" height="26" viewBox="0 0 25 26" fill="none" xmlns="http://www.w3.org/2000/svg">
<path d="M0 12.84C0 5.93641 5.59644 0.339966 12.5 0.339966C19.4036 0.339966 25 5.93641 25 12.84C25 19.7435 19.4036 25.34 12.5 25.34C5.59644 25.34 0 19.7435 0 12.84Z" fill="#02983E"/>
<g clip-path="url(#clip0_1_732)">
<path d="M14.2766 11.4334L12.2597 14.4683L10.897 13.5711M18.3337 13.5711C18.3337 17.2169 15.7816 19.0398 12.7482 20.0971C12.5894 20.151 12.4169 20.1484 12.2597 20.0898C9.21908 19.0398 6.66699 17.2169 6.66699 13.5711V8.46692C6.66699 8.27353 6.74382 8.08807 6.88056 7.95132C7.01731 7.81458 7.20277 7.73775 7.39616 7.73775C8.85449 7.73775 10.6774 6.86275 11.9462 5.75442C12.1006 5.62244 12.2971 5.54993 12.5003 5.54993C12.7035 5.54993 12.9 5.62244 13.0545 5.75442C14.3305 6.87005 16.1462 7.73775 17.6045 7.73775C17.7979 7.73775 17.9833 7.81458 18.1201 7.95132C18.2568 8.08807 18.3337 8.27353 18.3337 8.46692V13.5711Z" stroke="#FFF8F7" stroke-width="1.46434" stroke-linecap="round" stroke-linejoin="round"/>
</g>
<defs>
<clipPath id="clip0_1_732">
<rect width="17.5" height="17.5" fill="white" transform="translate(3.75 4.08997)"/>
</clipPath>
</defs>
</svg>
