<svg width="59" height="60" viewBox="0 0 59 60" fill="none" xmlns="http://www.w3.org/2000/svg">
<circle cx="26.5" cy="33.37" r="26.46" fill="#FFF1F0"/>
<path d="M16.1667 33.4599C16.1667 34.8965 16.7374 36.2742 17.7533 37.29C18.7691 38.3059 20.1468 38.8765 21.5834 38.8765C23.5851 38.9511 25.4992 39.7167 27.0001 41.0432C28.501 39.7167 30.4151 38.9511 32.4167 38.8765C33.8533 38.8765 35.2311 38.3059 36.2469 37.29C37.2627 36.2742 37.8334 34.8965 37.8334 33.4599V28.0432H32.4167C30.4151 28.1178 28.501 28.8834 27.0001 30.2099C25.4992 28.8834 23.5851 28.1178 21.5834 28.0432H16.1667V33.4599Z" stroke="#E6372B" stroke-width="1.625" stroke-linecap="round" stroke-linejoin="round"/>
<path d="M20.5001 32.3765C22.1251 32.3765 23.7501 32.9182 23.7501 34.5432C21.5834 34.5432 20.5001 34.5432 20.5001 32.3765Z" stroke="#E6372B" stroke-width="1.625" stroke-linecap="round" stroke-linejoin="round"/>
<path d="M33.5001 32.3765C31.8751 32.3765 30.2501 32.9182 30.2501 34.5432C32.4167 34.5432 33.5001 34.5432 33.5001 32.3765Z" stroke="#E6372B" stroke-width="1.625" stroke-linecap="round" stroke-linejoin="round"/>
<circle cx="47.0398" cy="11.9102" r="10.5" fill="#7A44FF" stroke="#FAFAFA"/>
<mask id="mask0_1_377" style="mask-type:alpha" maskUnits="userSpaceOnUse" x="41" y="4" width="14" height="14">
<rect x="41.04" y="4.91003" width="13" height="13" fill="#D9D9D9"/>
</mask>
<g mask="url(#mask0_1_377)">
<path d="M41.5815 15.7436V14.2269C41.5815 13.92 41.6605 13.6378 41.8185 13.3805C41.9765 13.1233 42.1864 12.9269 42.4482 12.7915C43.0079 12.5116 43.5767 12.3017 44.1545 12.1618C44.7322 12.0219 45.319 11.9519 45.9149 11.9519C46.5107 11.9519 47.0975 12.0219 47.6753 12.1618C48.2531 12.3017 48.8218 12.5116 49.3815 12.7915C49.6433 12.9269 49.8532 13.1233 50.0112 13.3805C50.1692 13.6378 50.2482 13.92 50.2482 14.2269V15.7436H41.5815ZM51.3315 15.7436V14.1186C51.3315 13.7213 51.221 13.3399 50.9998 12.9743C50.7786 12.6087 50.4649 12.295 50.0586 12.0332C50.519 12.0873 50.9524 12.1799 51.3586 12.3108C51.7649 12.4417 52.144 12.6019 52.4961 12.7915C52.8211 12.972 53.0694 13.1729 53.2409 13.3941C53.4124 13.6153 53.4982 13.8568 53.4982 14.1186V15.7436H51.3315ZM45.9149 11.4102C45.319 11.4102 44.809 11.1981 44.3847 10.7738C43.9604 10.3495 43.7482 9.8394 43.7482 9.24357C43.7482 8.64774 43.9604 8.13767 44.3847 7.71336C44.809 7.28906 45.319 7.0769 45.9149 7.0769C46.5107 7.0769 47.0208 7.28906 47.4451 7.71336C47.8694 8.13767 48.0815 8.64774 48.0815 9.24357C48.0815 9.8394 47.8694 10.3495 47.4451 10.7738C47.0208 11.1981 46.5107 11.4102 45.9149 11.4102ZM51.3315 9.24357C51.3315 9.8394 51.1194 10.3495 50.6951 10.7738C50.2708 11.1981 49.7607 11.4102 49.1649 11.4102C49.0656 11.4102 48.9392 11.399 48.7857 11.3764C48.6322 11.3538 48.5058 11.329 48.4065 11.3019C48.6503 11.013 48.8376 10.6925 48.9685 10.3404C49.0994 9.98836 49.1649 9.62274 49.1649 9.24357C49.1649 8.8644 49.0994 8.49878 48.9685 8.1467C48.8376 7.79461 48.6503 7.47413 48.4065 7.18524C48.5329 7.1401 48.6593 7.11076 48.7857 7.09722C48.9121 7.08368 49.0385 7.0769 49.1649 7.0769C49.7607 7.0769 50.2708 7.28906 50.6951 7.71336C51.1194 8.13767 51.3315 8.64774 51.3315 9.24357ZM42.6649 14.6602H49.1649V14.2269C49.1649 14.1276 49.14 14.0373 49.0904 13.9561C49.0407 13.8748 48.9753 13.8116 48.894 13.7665C48.4065 13.5227 47.9145 13.3399 47.418 13.2181C46.9215 13.0962 46.4204 13.0352 45.9149 13.0352C45.4093 13.0352 44.9083 13.0962 44.4118 13.2181C43.9152 13.3399 43.4232 13.5227 42.9357 13.7665C42.8545 13.8116 42.789 13.8748 42.7394 13.9561C42.6897 14.0373 42.6649 14.1276 42.6649 14.2269V14.6602ZM45.9149 10.3269C46.2128 10.3269 46.4678 10.2208 46.68 10.0087C46.8921 9.79652 46.9982 9.54149 46.9982 9.24357C46.9982 8.94565 46.8921 8.69062 46.68 8.47847C46.4678 8.26631 46.2128 8.16024 45.9149 8.16024C45.617 8.16024 45.3619 8.26631 45.1498 8.47847C44.9376 8.69062 44.8315 8.94565 44.8315 9.24357C44.8315 9.54149 44.9376 9.79652 45.1498 10.0087C45.3619 10.2208 45.617 10.3269 45.9149 10.3269Z" fill="white"/>
</g>
</svg>
