<svg width="18" height="16" viewBox="0 0 18 16" fill="none" xmlns="http://www.w3.org/2000/svg">
<path d="M17.0861 12.6816L10.5787 1.42086C9.87707 0.193047 8.12305 0.193047 7.40391 1.42086L0.914046 12.6816C0.21244 13.8919 1.08945 15.4179 2.49266 15.4179H15.4899C16.9107 15.4179 17.7877 13.8919 17.0861 12.6816ZM9.00006 4.22729C9.56135 4.22729 9.99985 4.68333 9.99985 5.22707V5.29724L9.66659 10.3137C9.64905 10.6645 9.35087 10.9452 9.00006 10.9452C8.64926 10.9452 8.35108 10.6645 8.33354 10.3137L8.00027 5.29724C7.96519 4.71841 8.42124 4.22729 9.00006 4.22729ZM9.00006 13.5937C8.42124 13.5937 7.94765 13.1201 7.94765 12.5413C7.94765 11.9625 8.42124 11.4889 9.00006 11.4889C9.57889 11.4889 10.0525 11.9625 10.0525 12.5413C10.0525 13.1201 9.57889 13.5937 9.00006 13.5937Z" fill="#A3A9B6"/>
</svg> 