<svg width="25" height="26" viewBox="0 0 25 26" fill="none" xmlns="http://www.w3.org/2000/svg">
<path d="M0 12.84C0 5.93641 5.59644 0.339966 12.5 0.339966C19.4036 0.339966 25 5.93641 25 12.84C25 19.7435 19.4036 25.34 12.5 25.34C5.59644 25.34 0 19.7435 0 12.84Z" fill="#FF9500"/>
<g clip-path="url(#clip0_1_725)">
<path d="M14.2358 10.8225L10.7635 14.5841M10.7635 10.8225L14.2358 14.5841M18.0552 13.4556C18.0552 17.2172 15.6246 19.098 12.7358 20.1888C12.5845 20.2444 12.4202 20.2417 12.2705 20.1813C9.37465 19.098 6.94409 17.2172 6.94409 13.4556V8.18941C6.94409 7.98988 7.01726 7.79853 7.14749 7.65744C7.27772 7.51635 7.45436 7.43709 7.63854 7.43709C9.02742 7.43709 10.7635 6.53431 11.9719 5.3908C12.119 5.25463 12.3061 5.17981 12.4996 5.17981C12.6932 5.17981 12.8803 5.25463 13.0274 5.3908C14.2427 6.54184 15.9719 7.43709 17.3608 7.43709C17.5449 7.43709 17.7216 7.51635 17.8518 7.65744C17.982 7.79853 18.0552 7.98988 18.0552 8.18941V13.4556Z" stroke="#FFF8F7" stroke-width="1.46" stroke-linecap="round" stroke-linejoin="round"/>
</g>
<defs>
<clipPath id="clip0_1_725">
<rect width="17.5" height="17.5" fill="white" transform="translate(3.75 4.08997)"/>
</clipPath>
</defs>
</svg>
